REM DIRINDEX 1\2\4,1\2\5,1\3\6,1\3\7,1\3\8
REM DIRNAME folder01,folder02,folder03,folder04,folder05,folder06,folder07,folder08
TITLE ""
FILE "LV4_061_WORDS.mp3" MP3
  TRACK 01 AUDIO
    TITLE "0:"
    INDEX 01 00:00:00
  TRACK 02 AUDIO
    TITLE "6:cjc094_2154"
    INDEX 01 00:00:03
  TRACK 03 AUDIO
    TITLE "0:"
    INDEX 01 00:01:36
  TRACK 04 AUDIO
    TITLE "6:cjc094_2155"
    INDEX 01 00:02:14
  TRACK 05 AUDIO
    TITLE "0:"
    INDEX 01 00:04:56
  TRACK 06 AUDIO
    TITLE "7:cjc094_2156"
    INDEX 01 00:05:42
  TRACK 07 AUDIO
    TITLE "0:"
    INDEX 01 00:06:47
  TRACK 08 AUDIO
    TITLE "8:cjc094_2157"
    INDEX 01 00:06:65
  TRACK 09 AUDIO
    TITLE "0:"
    INDEX 01 00:08:05
  TRACK 10 AUDIO
    TITLE "7:cjc094_2158"
    INDEX 01 00:08:60
  TRACK 11 AUDIO
    TITLE "0:"
    INDEX 01 00:09:65
  TRACK 12 AUDIO
    TITLE "8:cjc094_2159"
    INDEX 01 00:10:08
  TRACK 13 AUDIO
    TITLE "0:"
    INDEX 01 00:11:17
  TRACK 14 AUDIO
    TITLE "7:cjc094_2160"
    INDEX 01 00:11:54
  TRACK 15 AUDIO
    TITLE "0:"
    INDEX 01 00:12:65
  TRACK 16 AUDIO
    TITLE "8:cjc094_2161"
    INDEX 01 00:13:10
  TRACK 17 AUDIO
    TITLE "0:"
    INDEX 01 00:15:11
  TRACK 18 AUDIO
    TITLE "7:cjc094_2162"
    INDEX 01 00:15:62
  TRACK 19 AUDIO
    TITLE "0:"
    INDEX 01 00:16:53
  TRACK 20 AUDIO
    TITLE "8:cjc094_2163"
    INDEX 01 00:16:73
  TRACK 21 AUDIO
    TITLE "0:"
    INDEX 01 00:18:62
  TRACK 22 AUDIO
    TITLE "7:cjc094_2164"
    INDEX 01 00:19:36
  TRACK 23 AUDIO
    TITLE "0:"
    INDEX 01 00:20:57
  TRACK 24 AUDIO
    TITLE "8:cjc094_2165"
    INDEX 01 00:20:73
  TRACK 25 AUDIO
    TITLE "0:"
    INDEX 01 00:23:26
  TRACK 26 AUDIO
    TITLE "7:cjc094_2166"
    INDEX 01 00:24:04
  TRACK 27 AUDIO
    TITLE "0:"
    INDEX 01 00:25:23
  TRACK 28 AUDIO
    TITLE "8:cjc094_2167"
    INDEX 01 00:25:45
  TRACK 29 AUDIO
    TITLE "0:"
    INDEX 01 00:28:08
  TRACK 30 AUDIO
    TITLE "7:cjc094_2168"
    INDEX 01 00:28:59
  TRACK 31 AUDIO
    TITLE "0:"
    INDEX 01 00:29:72
  TRACK 32 AUDIO
    TITLE "8:cjc094_2169"
    INDEX 01 00:30:20
  TRACK 33 AUDIO
    TITLE "0:"
    INDEX 01 00:32:27
  TRACK 34 AUDIO
    TITLE "7:cjc094_2170"
    INDEX 01 00:33:07
  TRACK 35 AUDIO
    TITLE "0:"
    INDEX 01 00:34:24
  TRACK 36 AUDIO
    TITLE "8:cjc094_2171"
    INDEX 01 00:34:38
  TRACK 37 AUDIO
    TITLE "0:"
    INDEX 01 00:36:21
  TRACK 38 AUDIO
    TITLE "7:cjc094_2172"
    INDEX 01 00:36:74
  TRACK 39 AUDIO
    TITLE "0:"
    INDEX 01 00:38:18
  TRACK 40 AUDIO
    TITLE "8:cjc094_2173"
    INDEX 01 00:38:41
  TRACK 41 AUDIO
    TITLE "0:"
    INDEX 01 00:39:54
  TRACK 42 AUDIO
    TITLE "7:cjc094_2174"
    INDEX 01 00:40:32
  TRACK 43 AUDIO
    TITLE "0:"
    INDEX 01 00:41:38
  TRACK 44 AUDIO
    TITLE "8:cjc094_2175"
    INDEX 01 00:41:55
  TRACK 45 AUDIO
    TITLE "0:"
    INDEX 01 00:43:27
  TRACK 46 AUDIO
    TITLE "7:cjc094_2176"
    INDEX 01 00:44:07
  TRACK 47 AUDIO
    TITLE "0:"
    INDEX 01 00:45:24
  TRACK 48 AUDIO
    TITLE "8:cjc094_2177"
    INDEX 01 00:45:39
  TRACK 49 AUDIO
    TITLE "0:"
    INDEX 01 00:46:41
  TRACK 50 AUDIO
    TITLE "7:cjc094_2178"
    INDEX 01 00:47:13
  TRACK 51 AUDIO
    TITLE "0:"
    INDEX 01 00:48:20
  TRACK 52 AUDIO
    TITLE "8:cjc094_2179"
    INDEX 01 00:48:40
  TRACK 53 AUDIO
    TITLE "0:"
    INDEX 01 00:50:48
  TRACK 54 AUDIO
    TITLE "7:cjc094_2180"
    INDEX 01 00:51:24
  TRACK 55 AUDIO
    TITLE "0:"
    INDEX 01 00:52:39
  TRACK 56 AUDIO
    TITLE "8:cjc094_2181"
    INDEX 01 00:52:55
  TRACK 57 AUDIO
    TITLE "0:"
    INDEX 01 00:54:56
  TRACK 58 AUDIO
    TITLE "7:cjc094_2182"
    INDEX 01 00:55:42
  TRACK 59 AUDIO
    TITLE "0:"
    INDEX 01 00:56:51
  TRACK 60 AUDIO
    TITLE "8:cjc094_2183"
    INDEX 01 00:56:69
  TRACK 61 AUDIO
    TITLE "0:"
    INDEX 01 00:58:18
